<svg width="26" height="26" viewBox="0 0 26 26" fill="none" xmlns="http://www.w3.org/2000/svg">
    <path
        d="M4.39534 11.7379C4.06789 11.4859 3.6995 11.234 3.33111 10.982C3.33111 10.982 3.33111 10.9316 3.29018 10.9316C3.20832 12.393 3.16739 13.9047 3.20832 15.366C3.20832 16.1723 3.24925 16.9785 3.29018 17.7848C3.33111 18.5911 3.53577 18.9942 3.90416 19.3469C3.94509 16.8274 4.27255 14.2574 4.39534 11.7883C4.39534 11.7883 4.39534 11.7883 4.39534 11.7379Z"
        fill="#5C9A88" />
    <path
        d="M3.78158 22.5217C3.41319 22.8241 3.1676 23.2776 3.1676 23.7815C3.41319 25.3436 5.00953 24.2854 4.84581 23.076C4.72301 22.421 4.1909 22.2194 3.78158 22.5217Z"
        fill="#5C9A88" />
    <path
        d="M4.47737 10.5287C4.47737 10.4279 4.5183 10.2767 4.55923 10.1759C4.31364 9.97435 4.02712 9.7224 3.74059 9.52083C3.69966 9.47044 3.65873 9.42005 3.6178 9.42005C3.33128 9.1681 3.04475 8.91614 2.75823 8.66419C2.43078 8.41224 1.48934 7.75715 0.875366 7.05168C0.916298 7.35403 1.694 8.41224 1.73493 8.41224C2.18518 8.81536 2.67637 9.21849 3.16755 9.57123C3.57687 9.7224 4.06805 10.1759 4.47737 10.5287Z"
        fill="#5C9A88" />
    <path
        d="M1.77593 6.49742C1.93966 6.64859 2.06246 6.74938 2.18525 6.90055C2.84016 7.50524 3.49507 8.05954 4.14998 8.61384C4.51837 8.86579 4.88675 9.16814 5.25514 9.42009C5.78725 9.01697 6.40123 8.66423 6.93335 8.36189C8.61155 7.35407 10.3307 6.64859 12.0908 6.19508C12.4182 6.09429 12.541 6.69899 12.2136 6.79977C10.4944 7.25329 8.77528 7.90837 7.17894 8.91619C6.81055 9.11775 6.19657 9.42009 5.70539 9.82322C5.78725 9.87361 5.91005 9.924 5.99191 10.0248C6.27844 10.2263 6.56496 10.4279 6.85148 10.6799C7.58825 11.1838 8.32503 11.6877 9.10273 12.1916C9.26646 12.2924 9.47112 12.4435 9.67578 12.5947C10.0032 12.7963 10.3307 12.9475 10.6991 13.149C12.2136 13.9049 13.4006 13.2498 14.8332 12.4939C15.4472 12.1916 16.1021 11.8892 16.7161 11.5365C18.6808 10.4783 20.6046 9.31931 22.4465 8.05954C22.4874 8.00915 22.5284 8.00915 22.5284 8.00915C22.774 7.85798 22.9786 7.7068 23.2242 7.55563C23.347 7.45485 23.4698 7.35407 23.5926 7.25329C23.6745 7.20289 23.7154 7.1525 23.7973 7.10211C22.16 5.89273 20.2771 4.98569 18.5171 4.07866C16.7161 3.12123 14.9151 2.06302 13.0322 1.35755C12.1726 1.00481 10.9856 1.76068 10.167 2.06302C9.22553 2.51654 8.2841 2.91967 7.30173 3.2724C5.91005 3.8267 4.5593 4.43139 3.20855 5.08648C2.71737 5.28804 1.81687 5.59039 1.32568 5.94312C1.32568 5.99351 1.36662 6.0439 1.44848 6.14469C1.57127 6.24547 1.65314 6.39664 1.77593 6.49742Z"
        fill="#5C9A88" />
    <path
        d="M19.1718 15.6684C19.1718 16.1219 19.1308 16.5754 19.1308 17.0793C19.0899 17.4824 18.5987 17.432 18.5987 17.0289C18.6397 16.5754 18.6397 16.0715 18.6806 15.618C18.6806 15.2148 19.2127 15.2652 19.1718 15.6684ZM18.9671 18.4399C18.9262 18.6918 18.8443 18.9942 18.8034 19.2461C18.7625 19.4477 18.5987 19.4981 18.4759 19.4477C18.3531 19.3973 18.2713 19.2461 18.3122 19.0446C18.3531 18.7926 18.435 18.4903 18.4759 18.2383C18.5169 18.0367 18.6806 17.9863 18.8034 18.0367C18.9262 18.0871 19.0081 18.2383 18.9671 18.4399ZM19.5402 12.9976C19.5402 13.048 19.5402 13.0984 19.5402 13.1488C19.4583 13.6023 19.4174 14.0559 19.3355 14.5094C19.2946 14.9125 18.7625 14.9125 18.8034 14.5094C18.8853 14.1062 18.9262 13.7031 19.0081 13.3504C17.2071 14.3582 15.4061 15.3156 13.5641 16.0715C13.4004 16.1219 13.2367 16.1723 13.0729 16.2227C12.459 16.3738 11.8859 16.4242 11.2719 16.1219C10.3305 15.618 9.43 15.0637 8.5295 14.5094C8.5295 14.5094 8.5295 14.5094 8.48857 14.5094C8.44764 14.459 8.36577 14.4086 8.32484 14.4086C8.28391 14.3582 8.28391 14.3582 8.24298 14.3582C7.79273 14.0559 7.38341 13.8039 6.93316 13.5016C6.89223 13.5016 6.8513 13.4512 6.81036 13.4008C6.36011 13.1488 5.90986 12.8465 5.50055 12.5441C5.29589 12.393 5.09123 12.2418 4.88657 12.0906C4.88657 12.3426 4.88657 12.5441 4.84564 12.7961C4.72284 15.0637 4.43632 17.3817 4.39539 19.6996C4.43632 19.6996 4.47725 19.75 4.51818 19.75C6.8513 21.0098 9.30721 21.7657 11.845 21.8664C13.8916 21.9672 15.9791 21.7657 17.9438 21.0602C17.9848 20.8586 18.0257 20.6571 18.1485 20.5059C18.3122 20.2035 18.7625 20.5059 18.5578 20.8586C18.8853 20.7075 19.1718 20.6067 19.4583 20.4555C20.2769 20.0524 20.4407 19.3973 20.6044 18.4399C20.7681 17.5328 20.8909 16.6762 21.0546 15.7691C21.2184 14.459 21.423 13.0984 21.5868 11.7883C21.3002 11.9394 20.9728 12.141 20.6863 12.2922C20.3179 12.5441 19.9086 12.7961 19.5402 12.9976Z"
        fill="#5C9A88" />
    <path
        d="M23.1424 8.76481C23.0196 8.86559 22.8968 8.91599 22.774 9.01677C22.6921 9.11755 22.5693 9.16794 22.4465 9.26872C22.1191 9.47029 21.8325 9.67185 21.5051 9.87341C21.3004 10.0246 21.0548 10.1254 20.8502 10.2765C20.7683 10.3269 20.6865 10.3773 20.6046 10.4277C20.359 10.5789 20.1134 10.7301 19.8678 10.8812C19.8269 10.9316 19.745 10.982 19.6632 11.0324C18.5989 11.6371 17.5347 12.2418 16.4295 12.8465C16.1021 12.9976 15.7746 13.1488 15.4881 13.3C14.2192 13.9551 12.7866 14.9125 11.3949 14.5598C10.0032 14.2574 8.48877 13.048 7.26081 12.141C6.52404 11.6371 5.78726 11.1332 5.09142 10.5789C5.00956 10.6797 4.96863 10.8308 4.96863 10.9316C5.33701 11.234 5.7054 11.4859 6.11472 11.7379C6.11472 11.7379 6.11472 11.7379 6.11472 11.7883C6.56497 12.0402 6.97429 12.3426 7.38361 12.5945C8.07945 13.0984 8.81622 13.5519 9.55299 13.9551C9.67579 14.0559 9.79858 14.1062 9.92138 14.207C10.0851 14.3078 10.2488 14.4086 10.4126 14.5094C10.8219 14.7109 11.2312 15.0133 11.6405 15.1645C11.6814 15.1645 11.7633 15.2148 11.8042 15.2148C11.8861 15.2148 11.927 15.2652 12.0089 15.2652C12.0498 15.2652 12.0498 15.2652 12.0908 15.2652C12.1317 15.2652 12.1726 15.2652 12.1726 15.2652C12.2545 15.3156 12.3364 15.3156 12.4182 15.3156C12.4592 15.2652 12.541 15.2652 12.582 15.2652C12.6638 15.2652 12.7047 15.2652 12.7866 15.2652C12.8275 15.2148 12.8685 15.2148 12.9094 15.2148H12.9503C13.155 15.1645 13.3597 15.0637 13.5643 14.9629C13.9736 14.7613 14.342 14.6102 14.7513 14.4086C14.7923 14.4086 14.8332 14.3582 14.8741 14.3582C15.2835 14.1566 15.6518 13.9551 16.0612 13.7535C16.4295 13.5519 16.7979 13.3504 17.1663 13.1488C17.2482 13.1488 17.33 13.0984 17.4119 13.048C17.7394 12.8465 18.0668 12.6953 18.3943 12.4937C18.4352 12.4433 18.4761 12.4433 18.558 12.393C18.8445 12.2418 19.172 12.0402 19.4585 11.889C19.7041 11.7379 19.9087 11.6371 20.1134 11.4859C20.1953 11.4355 20.3181 11.3851 20.3999 11.2844C20.6046 11.1836 20.7683 11.0828 20.973 10.982C21.0958 10.8812 21.1776 10.8308 21.3004 10.7301C22.3237 10.1254 23.3061 9.41989 24.3294 8.71442C24.3294 8.46247 24.3294 8.2609 24.2885 8.00895C23.9201 8.2609 23.5926 8.46247 23.2242 8.71442C23.2242 8.76481 23.1833 8.76481 23.1424 8.76481Z"
        fill="#5C9A88" />
    <path
        d="M24.3293 8.71453C23.306 9.42 22.3236 10.1255 21.3003 10.7302C21.1775 10.8309 21.0957 10.8813 20.9729 10.9821C20.7682 11.0829 20.6045 11.1837 20.3998 11.2845C20.318 11.3852 20.1952 11.4356 20.1133 11.486C19.9087 11.6372 19.704 11.738 19.4584 11.8892C19.1719 12.0403 18.8444 12.2419 18.5579 12.3931C18.476 12.4435 18.4351 12.4435 18.3942 12.4938C18.0667 12.6954 17.7393 12.8466 17.4118 13.0481C17.33 13.0985 17.2481 13.1489 17.1662 13.1489C16.7978 13.3505 16.4295 13.5521 16.0611 13.7536C15.6518 13.9552 15.2834 14.1567 14.874 14.3583C14.8331 14.3583 14.7922 14.4087 14.7513 14.4087C14.3419 14.6103 13.9735 14.7614 13.5642 14.963C13.3596 15.0638 13.1549 15.1646 12.9502 15.215H12.9093C12.8684 15.215 12.8275 15.215 12.7865 15.2653C12.7047 15.2653 12.6637 15.2653 12.5819 15.2653C12.5409 15.2653 12.4591 15.2653 12.4181 15.3157C12.3363 15.3157 12.2544 15.3157 12.1725 15.2653C12.1725 15.2653 12.1316 15.2653 12.0907 15.2653C12.0497 15.2653 12.0497 15.2653 12.0088 15.2653C11.927 15.2653 11.886 15.215 11.8042 15.215C11.7632 15.215 11.6814 15.1646 11.6404 15.1646C11.2311 15.0134 10.8218 14.711 10.4125 14.5095C10.2487 14.4087 10.085 14.3079 9.92129 14.2071C9.7985 14.1064 9.6757 14.056 9.55291 13.9552C8.81613 13.5521 8.07936 13.0985 7.38352 12.5946C6.9742 12.3427 6.56488 12.0403 6.11463 11.7884C6.11463 11.738 6.11463 11.738 6.11463 11.738C5.70531 11.486 5.33693 11.2341 4.96854 10.9317C4.96854 10.8309 5.00947 10.6798 5.09134 10.579C5.78718 11.1333 6.52395 11.6372 7.26072 12.1411C8.48868 13.0481 10.0032 14.2575 11.3948 14.5599C12.7865 14.9126 14.2191 13.9552 15.488 13.3001C15.7745 13.1489 16.102 12.9978 16.4295 12.8466C17.5346 12.2419 18.5988 11.6372 19.6631 11.0325C19.7449 10.9821 19.8268 10.9317 19.8677 10.8813C20.1133 10.7302 20.3589 10.579 20.6045 10.4278C20.6864 10.3774 20.7682 10.327 20.8501 10.2766C21.0548 10.1255 21.3003 10.0247 21.505 9.87352C21.8325 9.67196 22.119 9.47039 22.4464 9.26883C22.5692 9.16805 22.692 9.11766 22.7739 9.01687C22.8967 8.91609 23.0195 8.8657 23.1423 8.76492C23.1832 8.76492 23.2241 8.76492 23.2241 8.71453C23.5925 8.46257 23.92 8.26101 24.2884 8.00906C24.3293 8.26101 24.3293 8.46257 24.3293 8.71453ZM21.0548 15.7693C20.891 16.6763 20.7682 17.5329 20.6045 18.44C20.4408 19.3974 20.2771 20.0525 19.4584 20.4556C19.1719 20.6068 18.8854 20.7076 18.5579 20.8587C18.7626 20.506 18.3123 20.2037 18.1486 20.506C18.0258 20.6572 17.9849 20.8587 17.9439 21.0603C15.9792 21.7658 13.8917 21.9673 11.8451 21.8666C9.30731 21.7658 6.8514 21.0099 4.51829 19.7501C4.47736 19.7501 4.43643 19.6997 4.39549 19.6997C4.43643 17.3818 4.72295 15.0638 4.84574 12.7962C4.88668 12.5442 4.88668 12.3427 4.88668 12.0907C5.09134 12.2419 5.29599 12.3931 5.50065 12.5442C5.90997 12.8466 6.36022 13.1489 6.81047 13.4009C6.8514 13.4513 6.89234 13.5017 6.93327 13.5017C7.38352 13.804 7.79284 14.056 8.24309 14.3583C8.28402 14.3583 8.28402 14.3583 8.32495 14.4087C8.36588 14.4087 8.44775 14.4591 8.48868 14.5095C8.52961 14.5095 8.52961 14.5095 8.52961 14.5095C9.43011 15.0638 10.3306 15.6181 11.272 16.122C11.886 16.4243 12.4591 16.3739 13.073 16.2228C13.2368 16.1724 13.4005 16.122 13.5642 16.0716C15.4062 15.3157 17.2072 14.3583 19.0082 13.3505C18.9263 13.7032 18.8854 14.1064 18.8035 14.5095C18.7626 14.9126 19.2947 14.9126 19.3356 14.5095C19.4175 14.056 19.4584 13.6024 19.5403 13.1489C19.5403 13.0985 19.5403 13.0481 19.5403 12.9978C19.9087 12.7962 20.318 12.5442 20.6864 12.2923C20.9729 12.1411 21.3003 11.9395 21.5869 11.7884C21.4231 13.0985 21.2185 14.4591 21.0548 15.7693ZM3.90431 19.347C3.53593 18.9943 3.33127 18.5911 3.29033 17.7849C3.2494 16.9786 3.20847 16.1724 3.20847 15.3661C3.16754 13.9048 3.20847 12.3931 3.29033 10.9317C3.33127 10.9317 3.33127 10.9821 3.33127 10.9821C3.69965 11.2341 4.06804 11.486 4.39549 11.738C4.39549 11.7884 4.39549 11.7884 4.39549 11.7884C4.2727 14.2575 3.94524 16.8275 3.90431 19.347ZM4.84574 23.0759C5.00947 24.2853 3.41313 25.3435 3.16754 23.7814C3.16754 23.2775 3.41313 22.824 3.78152 22.5216C4.19083 22.2193 4.72295 22.4209 4.84574 23.0759ZM1.73492 8.41218C1.69399 8.41218 0.916287 7.35397 0.875355 7.05163C1.48933 7.7571 2.43077 8.41218 2.75822 8.66414C3.04474 8.91609 3.33127 9.16805 3.61779 9.42C3.65872 9.42 3.69965 9.47039 3.74058 9.52078C4.02711 9.72235 4.31363 9.9743 4.55922 10.1759C4.51829 10.2766 4.47736 10.4278 4.47736 10.5286C4.06804 10.1759 3.57686 9.72235 3.16754 9.57117C2.67636 9.21844 2.18517 8.81531 1.73492 8.41218ZM3.20847 5.08638C4.55922 4.4313 5.90997 3.82661 7.30165 3.27231C8.28402 2.91957 9.22545 2.51645 10.1669 2.06293C10.9855 1.76058 12.1725 1.00472 13.0321 1.35746C14.915 2.06293 16.716 3.12114 18.517 4.07857C20.2771 4.9856 22.1599 5.89264 23.7972 7.10202C23.7153 7.15241 23.6744 7.2028 23.5925 7.25319C23.4697 7.35397 23.3469 7.45476 23.2241 7.55554C22.9785 7.70671 22.7739 7.85788 22.5283 8.00906C22.5283 8.00906 22.4874 8.00906 22.4464 8.05945C20.6045 9.31922 18.6807 10.4782 16.716 11.5364C16.102 11.8892 15.4471 12.1915 14.8331 12.4938C13.4005 13.2497 12.2135 13.9048 10.699 13.1489C10.3306 12.9474 10.0032 12.7962 9.6757 12.5946C9.47104 12.4435 9.26638 12.2923 9.10266 12.1915C8.32495 11.6876 7.58818 11.1837 6.8514 10.6798C6.56488 10.4278 6.27836 10.2263 5.99184 10.0247C5.90997 9.92391 5.78718 9.87352 5.70531 9.82313C6.1965 9.42 6.81047 9.11766 7.17886 8.91609C8.7752 7.90827 10.4943 7.25319 12.2135 6.79967C12.5409 6.69889 12.4181 6.0942 12.0907 6.19498C10.3306 6.6485 8.61147 7.35397 6.93327 8.36179C6.40115 8.66414 5.78718 9.01687 5.25506 9.42C4.88668 9.16805 4.51829 8.8657 4.1499 8.61375C3.49499 8.05945 2.84008 7.50515 2.18517 6.90046C2.06238 6.74928 1.93958 6.6485 1.77586 6.49733C1.65306 6.39655 1.5712 6.24537 1.4484 6.14459C1.36654 6.04381 1.32561 5.99342 1.32561 5.94303C1.81679 5.59029 2.71729 5.28795 3.20847 5.08638ZM24.8614 6.69889C23.0604 5.18717 20.932 4.22974 18.9672 3.17153C17.0844 2.16371 15.1606 1.05511 13.1958 0.299248C12.2544 -0.0534882 11.0674 0.601594 10.2078 0.95433C9.10266 1.40785 8.03843 1.91176 6.93327 2.36528C5.54159 2.91957 4.19083 3.52427 2.84008 4.12896C2.14424 4.4313 0.998151 4.73365 0.466037 5.38873C0.466037 5.43912 0.425105 5.48951 0.425105 5.5399C0.384173 5.5399 0.384173 5.59029 0.343242 5.64068C0.30231 5.84225 0.30231 6.0942 0.425105 6.34616C0.0567186 7.00124 0.0976505 7.90827 0.588833 8.56336C1.12095 9.26883 1.77586 9.82313 2.4717 10.327C2.3489 12.2419 2.3489 14.2071 2.38983 16.122C2.43077 17.6337 2.26704 19.347 3.41313 20.254C3.57686 20.3548 3.74058 20.506 3.90431 20.6068C3.94524 21.0099 3.94524 21.3626 3.98618 21.7658C3.94524 21.7658 3.90431 21.8162 3.86338 21.8162C3.16754 22.0177 2.63542 22.9248 2.67636 23.8318V23.8822C2.79915 24.89 3.57686 25.4443 4.35456 25.0916C4.96854 24.7892 5.41879 23.8318 5.33693 23.0255C5.29599 22.4209 4.92761 21.9673 4.47736 21.8162C4.47736 21.5138 4.43643 21.2115 4.43643 20.9091C6.68768 22.2193 9.38918 22.7736 11.8042 22.9248C14.5875 23.1263 17.7393 22.6224 20.318 21.1611C21.4641 20.506 21.4641 18.44 21.6687 17.1802C21.9962 15.1646 22.2827 13.1489 22.5283 11.1837C23.1423 10.7806 23.7563 10.327 24.3702 9.92391C24.6568 9.72235 25.0661 9.57117 25.1479 9.06727C25.2298 8.46257 25.1479 7.90827 24.9842 7.35397C25.0661 7.15241 25.0251 6.85007 24.8614 6.69889Z"
        fill="#474443" />
    <path
        d="M18.6806 15.6181C18.6397 16.0717 18.6397 16.5756 18.5988 17.0291C18.5988 17.4322 19.0899 17.4826 19.1309 17.0795C19.1309 16.5756 19.1718 16.1221 19.1718 15.6685C19.2127 15.2654 18.6806 15.215 18.6806 15.6181Z"
        fill="#474443" />
    <path
        d="M18.8037 18.0368C18.6809 17.9864 18.5172 18.0368 18.4763 18.2383C18.4353 18.4903 18.3535 18.7926 18.3125 19.0446C18.2716 19.2461 18.3535 19.3973 18.4763 19.4477C18.5991 19.4981 18.7628 19.4477 18.8037 19.2461C18.8446 18.9942 18.9265 18.6918 18.9674 18.4399C19.0084 18.2383 18.9265 18.0872 18.8037 18.0368Z"
        fill="#474443" />
</svg>