<svg width="22" height="28" viewBox="0 0 22 28" fill="none" xmlns="http://www.w3.org/2000/svg">
    <path
        d="M8.93736 17.3849C7.05158 16.9903 5.3629 16.1004 4.0303 14.8646C1.86097 15.866 0.789062 17.344 0.789062 19.3821V26.2992C1.83182 26.7558 4.51888 27.7834 8.25566 28.159L7.38217 27.5016C7.10657 27.2947 6.97639 26.9593 7.04827 26.6342L8.93736 17.3849Z"
        fill="#647F94" />
    <path
        d="M11.13 15.8507C15.6955 15.8507 19.4111 12.3303 19.4111 8.00452C19.4111 3.67873 15.6955 0.158936 11.13 0.158936C6.56706 0.158936 2.8548 3.67873 2.8548 8.00452C2.8548 12.3303 6.56673 15.8507 11.13 15.8507Z"
        fill="#647F94" />
    <path d="M10.7877 17.6893L9.00327 26.46L11.2067 28.1178L13.4058 26.4612L11.5949 17.6893H10.7877Z" fill="#6EC4A7" />
    <path
        d="M18.24 14.8587C16.9339 16.0727 15.2813 16.9497 13.4396 17.3571L15.3618 26.632C15.4344 26.9584 15.3048 27.2937 15.0299 27.5019L14.2031 28.1241C16.5076 27.8654 19.0049 27.2987 21.6224 26.2668V19.3821C21.6224 17.3415 20.5037 15.8617 18.24 14.8587Z"
        fill="#647F94" />
</svg>