<svg width="29" height="30" viewBox="0 0 29 30" fill="none" xmlns="http://www.w3.org/2000/svg">
    <path
        d="M9.8005 12.4682C9.8005 13.4093 9.18231 14.1739 8.41852 14.1739C7.65473 14.1739 7.03464 13.4089 7.03464 12.4682C7.03464 11.5224 7.65473 10.7602 8.41852 10.7602C9.18231 10.7602 9.8005 11.5224 9.8005 12.4682ZM8.56486 24.1569L8.86095 30.4537C8.86095 30.6759 9.00654 30.8567 9.18419 30.8567C9.36486 30.8567 9.50819 30.6755 9.50819 30.4537L9.78655 24.1569H10.6888L9.756 17.0979L11.6321 21.7132C11.7026 21.9178 11.892 22.0147 12.0579 21.9252C12.222 21.8409 12.3001 21.6065 12.228 21.402C12.228 21.402 10.8521 16.8063 10.5122 15.9495C10.1762 15.0931 9.84049 14.5718 8.55015 14.5718H8.2865C6.99843 14.5718 6.66236 15.0927 6.32253 15.9467C5.98457 16.8058 4.60371 21.3987 4.60371 21.3987C4.5362 21.6037 4.61239 21.8404 4.77646 21.9247C4.94242 22.0142 5.13177 21.915 5.2023 21.7128L7.08028 17.0975L6.14676 24.1565H7.04822L7.32846 30.4532C7.32846 30.6755 7.47406 30.8562 7.65284 30.8562C7.83426 30.8562 7.97797 30.675 7.97797 30.4532L8.25595 24.1565H8.56486V24.1569ZM19.5872 10.7555C18.8219 10.7555 18.2026 11.5177 18.2026 12.4635C18.2026 13.4047 18.8234 14.1669 19.5872 14.1669C20.3491 14.1669 20.9639 13.4047 20.9639 12.4635C20.9639 11.5177 20.3491 10.7555 19.5872 10.7555ZM21.019 20.8061L21.1106 17.0909L22.7981 21.7086C22.8687 21.9136 23.0576 22.0081 23.224 21.921C23.3884 21.8362 23.468 21.6023 23.3979 21.395C23.3979 21.395 22.2086 16.8016 21.8684 15.9425C21.5304 15.0885 21.0073 14.5671 19.7162 14.5671H19.4525C18.1656 14.5671 17.6364 15.0885 17.2985 15.9425C16.9586 16.8011 15.7701 21.395 15.7701 21.395C15.7004 21.6023 15.7784 21.8362 15.9429 21.921C16.1088 22.0081 16.2982 21.9112 16.3687 21.7086L18.0581 17.0909L18.152 20.8061L17.8842 30.135C17.8627 30.5068 18.0894 30.8273 18.3863 30.8516C18.4021 30.8516 18.4157 30.8544 18.4255 30.8544C18.7087 30.8544 18.9471 30.5865 18.9682 30.2319L19.5838 23.0159L20.199 30.2319C20.2186 30.5865 20.457 30.8544 20.7418 30.8544C20.7534 30.8544 20.767 30.8544 20.7791 30.8516C21.0797 30.8273 21.3026 30.5068 21.283 30.135L21.019 20.8061ZM14.0004 21.1341C13.5327 21.1341 13.1529 21.6023 13.1529 22.181C13.1529 22.7601 13.5327 23.2256 14.0004 23.2256C14.4681 23.2256 14.8498 22.7601 14.8498 22.181C14.8498 21.6023 14.4681 21.1341 14.0004 21.1341ZM14.0004 27.3032C14.0004 27.3032 14.3821 30.579 14.3821 30.5818C14.4319 30.7384 14.556 30.8544 14.7042 30.8544C14.8585 30.8544 14.9845 30.7286 15.0305 30.5571C15.0343 30.5497 15.0422 30.3544 15.0343 30.3232L14.8781 26.2992L14.926 24.9191C14.9698 24.4486 14.9777 24.586 15.4122 24.2678C15.8539 23.9398 16.6067 22.502 16.6418 22.4298C16.678 22.3599 16.7482 22.2318 16.7617 22.1521C16.7825 22.0054 16.7063 21.8698 16.5901 21.8409C16.5004 21.8213 16.4257 21.8796 16.3702 21.9569C16.3118 22.0314 15.4465 23.4548 14.7963 23.5922C14.6526 23.5657 14.4945 23.4716 14.0823 23.4716H13.9182C13.5059 23.4716 13.3498 23.5657 13.2042 23.5922C12.5535 23.4548 11.6883 22.0314 11.6298 21.9569C11.5744 21.8796 11.5001 21.8213 11.4122 21.8409C11.296 21.8698 11.2198 22.0072 11.2421 22.1521C11.2538 22.2318 11.3243 22.3594 11.3601 22.4298C11.3964 22.502 12.15 23.9398 12.5894 24.2678C13.0239 24.5865 13.0318 24.449 13.0759 24.9191L13.122 26.2992L12.9677 30.3232C12.9598 30.3568 12.9677 30.5497 12.9715 30.5571C13.0175 30.7286 13.1412 30.8544 13.2977 30.8544C13.4441 30.8544 13.57 30.7384 13.6198 30.5818C13.6206 30.579 14.0004 27.3032 14.0004 27.3032ZM28.7629 14.4488C29.1808 13.7108 29.0322 12.6904 28.4306 12.1737L16.2043 1.66702C14.9486 0.586579 13.0522 0.586579 11.7981 1.66702L-0.430888 12.1737C-1.03136 12.69 -1.18072 13.7108 -0.762807 14.4488C-0.344891 15.1896 0.478494 15.3755 1.07896 14.8592L13.306 4.35252C13.6508 4.05807 14.3482 4.05807 14.6929 4.35252L26.9192 14.8592C27.1497 15.0568 27.4152 15.1537 27.6732 15.1537C28.0949 15.1509 28.5068 14.9049 28.7629 14.4488Z"
        fill="#5C9A88" />
</svg>