<svg width="21" height="22" viewBox="0 0 21 22" fill="none" xmlns="http://www.w3.org/2000/svg">
    <path
        d="M6.01081 9.63007H3.59289C3.38756 9.63007 3.22136 9.78983 3.22136 9.98721V12.3115C3.22136 12.5087 3.38756 12.6687 3.59289 12.6687H6.01081C6.21615 12.6687 6.38235 12.5087 6.38235 12.3115V9.98721C6.38235 9.79007 6.21615 9.63007 6.01081 9.63007ZM5.63928 11.9544H3.96442V10.3444H5.63928V11.9544Z"
        fill="#5C9A88" />
    <path
        d="M11.6502 9.63007H9.23223C9.0269 9.63007 8.8607 9.78983 8.8607 9.98721V12.3115C8.8607 12.5087 9.0269 12.6687 9.23223 12.6687H11.6502C11.8552 12.6687 12.0217 12.5087 12.0217 12.3115V9.98721C12.0217 9.79007 11.8552 9.63007 11.6502 9.63007ZM11.2786 11.9544H9.60376V10.3444H11.2786V11.9544Z"
        fill="#5C9A88" />
    <path
        d="M17.1156 9.63007H14.6977C14.4926 9.63007 14.3262 9.78983 14.3262 9.98721V12.3115C14.3262 12.5087 14.4926 12.6687 14.6977 12.6687H17.1156C17.3207 12.6687 17.4872 12.5087 17.4872 12.3115V9.98721C17.4872 9.79007 17.3207 9.63007 17.1156 9.63007ZM16.7441 11.9544H15.0692V10.3444H16.7441V11.9544Z"
        fill="#5C9A88" />
    <path
        d="M6.01081 14.9244H3.59289C3.38756 14.9244 3.22136 15.0844 3.22136 15.2815V17.6058C3.22136 17.803 3.38756 17.963 3.59289 17.963H6.01081C6.21615 17.963 6.38235 17.803 6.38235 17.6058V15.2815C6.38235 15.0844 6.21615 14.9244 6.01081 14.9244ZM5.63928 17.2487H3.96442V15.6387H5.63928V17.2487Z"
        fill="#5C9A88" />
    <path
        d="M11.6502 14.9244H9.23223C9.0269 14.9244 8.8607 15.0844 8.8607 15.2815V17.6058C8.8607 17.803 9.0269 17.963 9.23223 17.963H11.6502C11.8552 17.963 12.0217 17.803 12.0217 17.6058V15.2815C12.0217 15.0844 11.8552 14.9244 11.6502 14.9244ZM11.2786 17.2487H9.60376V15.6387H11.2786V17.2487Z"
        fill="#5C9A88" />
    <path
        d="M17.1156 14.9244H14.6977C14.4926 14.9244 14.3262 15.0844 14.3262 15.2815V17.6058C14.3262 17.803 14.4926 17.963 14.6977 17.963H17.1156C17.3207 17.963 17.4872 17.803 17.4872 17.6058V15.2815C17.4872 15.0844 17.3207 14.9244 17.1156 14.9244ZM16.7441 17.2487H15.0692V15.6387H16.7441V17.2487Z"
        fill="#5C9A88" />
    <path
        d="M20.0581 2.71407H17.6043C17.6011 2.71407 17.5984 2.71478 17.5951 2.71502V2.2393C17.5951 1.4612 16.9368 0.828339 16.1273 0.828339C15.3179 0.828339 14.6596 1.46144 14.6596 2.2393V2.71407H11.8946V2.2393C11.8946 1.4612 11.2363 0.828339 10.4268 0.828339C9.61738 0.828339 8.95903 1.46144 8.95903 2.2393V2.71407H6.19385V2.2393C6.19385 1.4612 5.5355 0.828339 4.72605 0.828339C3.91661 0.828339 3.25826 1.46144 3.25826 2.2393V2.71431C3.25702 2.71431 3.25578 2.71407 3.25455 2.71407H0.801203C0.59587 2.71407 0.429672 2.87383 0.429672 3.07121V21.5823C0.429672 21.7794 0.59587 21.9395 0.801203 21.9395H20.0581C20.2632 21.9395 20.4297 21.7794 20.4297 21.5823V3.07121C20.4297 2.87383 20.2632 2.71407 20.0581 2.71407ZM15.4026 2.2393C15.4026 1.85501 15.7276 1.54263 16.1273 1.54263C16.5271 1.54263 16.8521 1.85501 16.8521 2.2393V4.21003C16.8521 4.59408 16.5271 4.9067 16.1273 4.9067C15.7276 4.9067 15.4026 4.59432 15.4026 4.21003V2.2393ZM10.4268 1.54263C10.8263 1.54263 11.1516 1.85501 11.1516 2.2393V4.21003C11.1516 4.59408 10.8266 4.9067 10.4268 4.9067C10.0271 4.9067 9.70209 4.59432 9.70209 4.21003V3.10455C9.70308 3.09336 9.70556 3.08264 9.70556 3.07097C9.70556 3.05931 9.70308 3.04859 9.70209 3.0374V2.2393C9.70209 1.85501 10.0271 1.54263 10.4268 1.54263ZM4.00132 2.2393C4.00132 1.85501 4.32629 1.54263 4.72605 1.54263C5.12557 1.54263 5.45079 1.85501 5.45079 2.2393V4.21003C5.45079 4.59408 5.12582 4.9067 4.72605 4.9067C4.32629 4.9067 4.00132 4.59432 4.00132 4.21003V2.2393V2.2393ZM19.6866 21.2252H1.17273V3.42836H3.25455C3.25578 3.42836 3.25702 3.42812 3.25826 3.42812V4.21027C3.25826 4.98837 3.91686 5.62123 4.72605 5.62123C5.53525 5.62123 6.19385 4.98837 6.19385 4.21027V3.4286H8.95903V4.21027C8.95903 4.98837 9.61763 5.62123 10.4268 5.62123C11.236 5.62123 11.8946 4.98837 11.8946 4.21027V3.4286H14.6596V4.21027C14.6596 4.98837 15.3179 5.62123 16.1273 5.62123C16.9368 5.62123 17.5951 4.98837 17.5951 4.21027V3.42741C17.5984 3.42741 17.6011 3.42836 17.6043 3.42836H19.6866V21.2252Z"
        fill="#5C9A88" />
</svg>