<svg width="55" height="41" viewBox="0 0 55 41" fill="none" xmlns="http://www.w3.org/2000/svg">
    <path
        d="M42.5 15.5C43.8807 15.5 44.9999 14.3807 44.9999 13C44.9999 11.6193 43.8807 10.5 42.5 10.5C41.1193 10.5 40 11.6193 40 13C40 14.3807 41.1193 15.5 42.5 15.5Z"
        fill="#5C9A88" />
    <path
        d="M14.445 4.24996C14.7525 4.24996 15 4.02744 15 3.75002V2.25001C15 1.975 14.7525 1.75006 14.445 1.75006H10.555C10.2476 1.75006 10.0001 1.97258 10.0001 2.25001V3.75002C10.0001 4.02502 10.2476 4.24996 10.555 4.24996H14.445Z"
        fill="#5C9A88" />
    <path
        d="M28.75 33C34.9624 33 40 27.9624 40 21.75C40 15.5374 34.9624 10.4999 28.75 10.4999C22.5375 10.4999 17.4999 15.5374 17.4999 21.75C17.4999 27.9624 22.5375 33 28.75 33ZM28.75 13C33.5824 13 37.4999 16.9174 37.4999 21.75C37.4999 26.5823 33.5824 30.4999 28.75 30.4999C23.9175 30.4999 19.9999 26.5823 19.9999 21.75C19.9999 16.9174 23.9175 13 28.75 13Z"
        fill="#5C9A88" />
    <path
        d="M0 10.5V35.5001C0 40.5002 4.99997 40.5002 4.99997 40.5002H49.9999C49.9999 40.5002 55 40.5002 55 35.5001V10.5C55 5.50003 49.9999 5.50003 49.9999 5.50003H40.5L37.8449 1.07756C37.655 0.757536 37.195 0.500061 36.835 0.500061H20.665C20.2975 0.500061 19.84 0.767601 19.655 1.07756L16.9999 5.50003H4.99997C4.99997 5.49994 0 5.49994 0 10.5ZM18.685 8.00001L21.47 2.99995H35.79L38.9574 8.00001H49.9724C49.9724 8.00001 52.4999 8.00001 52.4999 10.545V35.4525C52.4999 38.0001 49.9724 38.0001 49.9724 38.0001H5.02747C5.02747 38.0001 2.49998 38.0001 2.49998 35.4525V10.545C2.49998 8.00001 5.02747 8.00001 5.02747 8.00001H18.685Z"
        fill="#5C9A88" />
</svg>