<svg width="45" height="45" viewBox="0 0 45 45" fill="none" xmlns="http://www.w3.org/2000/svg">
    <path
        d="M22.5878 40.558C12.5683 40.558 4.41821 32.407 4.41821 22.3884C4.41821 12.3697 12.5683 4.21875 22.5878 4.21875C32.6074 4.21875 40.7575 12.3697 40.7575 22.3884C40.7575 32.407 32.6074 40.558 22.5878 40.558ZM22.5878 6.85547C14.0229 6.85547 7.05493 13.8234 7.05493 22.3884C7.05493 30.9533 14.0229 37.9213 22.5878 37.9213C31.1528 37.9213 38.1208 30.9533 38.1208 22.3884C38.1208 13.8234 31.1528 6.85547 22.5878 6.85547Z"
        fill="#F95A5A" />
    <path
        d="M30.1395 31.4649C29.9664 31.4649 29.7949 31.4309 29.6349 31.3647C29.4749 31.2985 29.3295 31.2014 29.207 31.079L14.1039 15.975C13.978 15.8534 13.8775 15.7079 13.8084 15.5471C13.7394 15.3862 13.703 15.2132 13.7015 15.0382C13.6999 14.8631 13.7333 14.6895 13.7996 14.5275C13.8659 14.3655 13.9638 14.2183 14.0876 14.0945C14.2113 13.9707 14.3585 13.8728 14.5206 13.8065C14.6826 13.7403 14.8562 13.7069 15.0312 13.7084C15.2063 13.7099 15.3793 13.7463 15.5401 13.8154C15.701 13.8845 15.8464 13.9849 15.9681 14.1109L31.0721 29.2149C31.2563 29.3993 31.3816 29.6342 31.4324 29.8898C31.4831 30.1455 31.457 30.4105 31.3572 30.6513C31.2574 30.8921 31.0884 31.0979 30.8717 31.2427C30.655 31.3875 30.4002 31.4648 30.1395 31.4649Z"
        fill="#F95A5A" />
    <path
        d="M15.0355 31.4649C14.7749 31.4646 14.5202 31.3872 14.3036 31.2423C14.087 31.0974 13.9182 30.8916 13.8186 30.6508C13.7189 30.4101 13.6928 30.1452 13.7435 29.8896C13.7943 29.634 13.9197 29.3992 14.1038 29.2149L29.2069 14.1108C29.4541 13.8635 29.7895 13.7245 30.1392 13.7245C30.4888 13.7244 30.8242 13.8632 31.0715 14.1104C31.3189 14.3576 31.4579 14.6929 31.4579 15.0426C31.458 15.3923 31.3192 15.7277 31.072 15.975L15.968 31.079C15.8455 31.2014 15.7001 31.2985 15.5401 31.3647C15.3801 31.4309 15.2086 31.4649 15.0355 31.4649Z"
        fill="#F95A5A" />
</svg>