<svg width="60" height="60" viewBox="0 0 60 60" fill="none" xmlns="http://www.w3.org/2000/svg">
    <path
        d="M29 18.0338V18.9292L29.89 19.0277C46.2647 20.8398 59 34.7048 59 51.5625V52.1857C55.1053 47.1553 50.6958 44.068 46.0877 42.1892C40.7617 40.0176 35.223 39.4826 30.0247 39.3541L29 39.3287V40.3537V49.6875C29 50.3893 28.7304 51.0954 28.1941 51.6316C27.6575 52.1683 26.955 52.4375 26.25 52.4375C25.545 52.4375 24.8425 52.1683 24.3059 51.6316L24.301 51.6268L1.42399 29.0624L24.301 6.4944L24.3011 6.49441L24.3059 6.48961C24.8407 5.95477 25.5424 5.6875 26.25 5.6875C26.9572 5.6875 27.6585 5.95447 28.1932 6.48869C28.7313 7.03 29 7.73336 29 8.4375V18.0338Z"
        fill="#EBFCF7" stroke="#5C9A88" stroke-width="2" />
</svg>