<svg width="189" height="209" viewBox="0 0 189 209" fill="none" xmlns="http://www.w3.org/2000/svg">
    <path
        d="M188.116 173.317C188.116 184.165 184.871 192.73 178.38 199.013C171.889 205.296 163.265 208.438 152.506 208.438H35.9404C25.1819 208.438 16.5572 205.296 10.0666 199.013C3.57585 192.73 0.330505 184.165 0.330505 173.317C0.330505 168.525 0.486104 163.847 0.797302 159.282C1.1085 154.716 1.7309 149.789 2.66449 144.501C3.59808 139.212 4.77619 134.308 6.19881 129.788C7.62142 125.268 9.53307 120.861 11.9337 116.567C14.3344 112.273 17.0907 108.611 20.2027 105.583C23.3147 102.555 27.1157 100.136 31.6059 98.3283C36.096 96.5202 41.053 95.6162 46.4767 95.6162C47.2769 95.6162 49.1441 96.5881 52.0783 98.5317C55.0124 100.475 58.3244 102.645 62.0144 105.041C65.7043 107.436 70.5056 109.606 76.4184 111.55C82.3311 113.493 88.2661 114.465 94.2233 114.465C100.181 114.465 106.116 113.493 112.028 111.55C117.941 109.606 122.742 107.436 126.432 105.041C130.122 102.645 133.434 100.475 136.368 98.5317C139.303 96.5881 141.17 95.6162 141.97 95.6162C147.394 95.6162 152.351 96.5202 156.841 98.3283C161.331 100.136 165.132 102.555 168.244 105.583C171.356 108.611 174.112 112.273 176.513 116.567C178.914 120.861 180.825 125.268 182.248 129.788C183.67 134.308 184.849 139.212 185.782 144.501C186.716 149.789 187.338 154.716 187.649 159.282C187.961 163.847 188.116 168.525 188.116 173.317ZM145.438 52.2234C145.438 66.5973 140.436 78.8693 130.433 89.0395C120.431 99.2097 108.361 104.295 94.2233 104.295C80.0861 104.295 68.016 99.2097 58.0132 89.0395C48.0104 78.8693 43.0091 66.5973 43.0091 52.2234C43.0091 37.8495 48.0104 25.5775 58.0132 15.4073C68.016 5.23706 80.0861 0.151947 94.2233 0.151947C108.361 0.151947 120.431 5.23706 130.433 15.4073C140.436 25.5775 145.438 37.8495 145.438 52.2234Z"
        fill="#EBFCF7" />
</svg>