<svg width="30" height="30" viewBox="0 0 30 30" fill="none" xmlns="http://www.w3.org/2000/svg">
    <path
        d="M12.6786 3.75C9.23737 3.75 6.42857 6.5588 6.42857 10C6.42857 12.1508 7.52782 14.0644 9.19085 15.1897C6.0059 16.5557 3.75 19.7154 3.75 23.3929H5.53571C5.53571 19.4369 8.72262 16.25 12.6786 16.25C13.9072 16.25 15.0486 16.5695 16.0547 17.115C15.0635 18.3416 14.4643 19.9134 14.4643 21.6071C14.4643 25.5415 17.6728 28.75 21.6071 28.75C25.5415 28.75 28.75 25.5415 28.75 21.6071C28.75 17.6728 25.5415 14.4643 21.6071 14.4643C20.0472 14.4643 18.5989 14.9774 17.4219 15.8315C17.0268 15.5833 16.6003 15.3756 16.1663 15.1897C17.8293 14.0644 18.9286 12.1508 18.9286 10C18.9286 6.5588 16.1198 3.75 12.6786 3.75ZM12.6786 5.53571C15.1547 5.53571 17.1429 7.52387 17.1429 10C17.1429 12.4761 15.1547 14.4643 12.6786 14.4643C10.2024 14.4643 8.21429 12.4761 8.21429 10C8.21429 7.52387 10.2024 5.53571 12.6786 5.53571ZM21.6071 16.25C24.5764 16.25 26.9643 18.6379 26.9643 21.6071C26.9643 24.5764 24.5764 26.9643 21.6071 26.9643C18.6379 26.9643 16.25 24.5764 16.25 21.6071C16.25 18.6379 18.6379 16.25 21.6071 16.25ZM18.0357 22.5H25.1786V20.7143H18.0357"
        fill="#ebfcf7" />
</svg>