<svg width="38" height="38" viewBox="0 0 38 38" fill="none" xmlns="http://www.w3.org/2000/svg">
    <path
        d="M19 0.625C15.3658 0.625 11.8132 1.70267 8.7914 3.72175C5.76965 5.74082 3.41448 8.6106 2.02372 11.9682C0.632962 15.3258 0.269075 19.0204 0.978079 22.5848C1.68708 26.1492 3.43713 29.4233 6.00692 31.9931C8.57671 34.5629 11.8508 36.3129 15.4152 37.0219C18.9796 37.7309 22.6742 37.367 26.0318 35.9763C29.3894 34.5855 32.2592 32.2304 34.2783 29.2086C36.2973 26.1868 37.375 22.6342 37.375 19C37.375 14.1266 35.4391 9.45289 31.9931 6.00691C28.5471 2.56093 23.8734 0.625 19 0.625ZM26.4222 22.7144C26.9148 23.2069 27.1915 23.875 27.1915 24.5716C27.1915 25.2681 26.9148 25.9362 26.4222 26.4287C25.9296 26.9213 25.2616 27.198 24.565 27.198C23.8684 27.198 23.2004 26.9213 22.7078 26.4287L19 22.7144L15.2856 26.4287C14.7931 26.9213 14.125 27.198 13.4284 27.198C12.7319 27.198 12.0638 26.9213 11.5713 26.4287C11.0787 25.9362 10.802 25.2681 10.802 24.5716C10.802 23.875 11.0787 23.2069 11.5713 22.7144L15.2856 19L11.5713 15.2856C11.0787 14.7931 10.802 14.125 10.802 13.4284C10.802 12.7319 11.0787 12.0638 11.5713 11.5712C12.0638 11.0787 12.7319 10.802 13.4284 10.802C14.125 10.802 14.7931 11.0787 15.2856 11.5712L19 15.2856L22.7144 11.5712C23.2069 11.0787 23.875 10.802 24.5716 10.802C25.2682 10.802 25.9362 11.0787 26.4288 11.5712C26.9213 12.0638 27.198 12.7319 27.198 13.4284C27.198 14.125 26.9213 14.7931 26.4288 15.2856L22.7144 19L26.4222 22.7144Z"
        fill="#7FD4BC" />
</svg>