<svg width="20" height="31" viewBox="0 0 20 31" fill="none" xmlns="http://www.w3.org/2000/svg">
    <path
        d="M10 0.666687C12.6522 0.666687 15.1957 1.72026 17.0711 3.59562C18.9464 5.47098 20 8.01452 20 10.6667C20 15.6167 16.4 19.7334 11.6667 20.5334V24H15V27.3334H11.6667V30.6667H8.33333V27.3334H5V24H8.33333V20.5334C3.6 19.7334 0 15.6167 0 10.6667C0 8.01452 1.05357 5.47098 2.92893 3.59562C4.8043 1.72026 7.34783 0.666687 10 0.666687V0.666687ZM10 4.00002C8.23189 4.00002 6.5362 4.7024 5.28595 5.95264C4.03571 7.20288 3.33333 8.89858 3.33333 10.6667C3.33333 12.4348 4.03571 14.1305 5.28595 15.3807C6.5362 16.631 8.23189 17.3334 10 17.3334C11.7681 17.3334 13.4638 16.631 14.714 15.3807C15.9643 14.1305 16.6667 12.4348 16.6667 10.6667C16.6667 8.89858 15.9643 7.20288 14.714 5.95264C13.4638 4.7024 11.7681 4.00002 10 4.00002Z"
        fill="#5C9A88" />
</svg>