<svg width="60" height="60" viewBox="0 0 60 60" fill="none" xmlns="http://www.w3.org/2000/svg">
    <path
        d="M45.2691 19.4128V50.8422C45.2691 52.306 43.5963 53.5115 41.565 53.5115H12.8288C10.7976 53.5115 9.1248 52.306 9.1248 50.8422V19.4128H45.2691ZM35.8895 22.9001V49.938H38.0402V22.9001H35.8895ZM26.1514 22.9001V49.938H28.3022V22.9001H26.1514ZM16.4134 22.9001V49.938H18.5641V22.9001H16.4134ZM18.8031 12.1367V9.89785C18.8031 8.47707 20.3564 7.35767 22.3279 7.35767H32.1257C34.0972 7.35767 35.6505 8.47707 35.6505 9.89785V12.1367H46.4639C48.4952 12.1367 50.168 13.3422 50.168 14.806V16.6573H4.28564V14.7629C4.28564 13.2991 5.95844 12.0936 7.98969 12.0936H18.8031V12.1367ZM22.3279 9.07982C21.7305 9.07982 21.2526 9.42426 21.2526 9.8548V12.0936H33.2608V9.8548C33.2608 9.42426 32.7829 9.07982 32.1855 9.07982H22.3279Z"
        fill="#EBFCF7" />
</svg>