<svg width="35" height="35" viewBox="0 0 35 35" fill="none" xmlns="http://www.w3.org/2000/svg">
    <path
        d="M8.45834 3.83333H4.70834C3.67281 3.83333 2.83334 4.6728 2.83334 5.70833V9.45833C2.83334 10.4939 3.67281 11.3333 4.70834 11.3333H8.45834C9.49388 11.3333 10.3333 10.4939 10.3333 9.45833V5.70833C10.3333 4.6728 9.49388 3.83333 8.45834 3.83333Z"
        fill="#EBFCF7" />
    <path
        d="M19.7083 3.83333H15.9583C14.9228 3.83333 14.0833 4.6728 14.0833 5.70833V9.45833C14.0833 10.4939 14.9228 11.3333 15.9583 11.3333H19.7083C20.7439 11.3333 21.5833 10.4939 21.5833 9.45833V5.70833C21.5833 4.6728 20.7439 3.83333 19.7083 3.83333Z"
        fill="#EBFCF7" />
    <path
        d="M30.9583 3.83333H27.2083C26.1728 3.83333 25.3333 4.6728 25.3333 5.70833V9.45833C25.3333 10.4939 26.1728 11.3333 27.2083 11.3333H30.9583C31.9939 11.3333 32.8333 10.4939 32.8333 9.45833V5.70833C32.8333 4.6728 31.9939 3.83333 30.9583 3.83333Z"
        fill="#EBFCF7" />
    <path
        d="M30.9583 15.0833H27.2083C26.1728 15.0833 25.3333 15.9228 25.3333 16.9583V20.7083C25.3333 21.7439 26.1728 22.5833 27.2083 22.5833H30.9583C31.9939 22.5833 32.8333 21.7439 32.8333 20.7083V16.9583C32.8333 15.9228 31.9939 15.0833 30.9583 15.0833Z"
        fill="#EBFCF7" />
    <path
        d="M19.7083 15.0833H15.9583C14.9228 15.0833 14.0833 15.9228 14.0833 16.9583V20.7083C14.0833 21.7439 14.9228 22.5833 15.9583 22.5833H19.7083C20.7439 22.5833 21.5833 21.7439 21.5833 20.7083V16.9583C21.5833 15.9228 20.7439 15.0833 19.7083 15.0833Z"
        fill="#EBFCF7" />
    <path
        d="M8.45834 15.0833H4.70834C3.67281 15.0833 2.83334 15.9228 2.83334 16.9583V20.7083C2.83334 21.7439 3.67281 22.5833 4.70834 22.5833H8.45834C9.49388 22.5833 10.3333 21.7439 10.3333 20.7083V16.9583C10.3333 15.9228 9.49388 15.0833 8.45834 15.0833Z"
        fill="#EBFCF7" />
    <path
        d="M8.45834 26.3333H4.70834C3.67281 26.3333 2.83334 27.1728 2.83334 28.2083V31.9583C2.83334 32.9939 3.67281 33.8333 4.70834 33.8333H8.45834C9.49388 33.8333 10.3333 32.9939 10.3333 31.9583V28.2083C10.3333 27.1728 9.49388 26.3333 8.45834 26.3333Z"
        fill="#EBFCF7" />
    <path
        d="M19.7083 26.3333H15.9583C14.9228 26.3333 14.0833 27.1728 14.0833 28.2083V31.9583C14.0833 32.9939 14.9228 33.8333 15.9583 33.8333H19.7083C20.7439 33.8333 21.5833 32.9939 21.5833 31.9583V28.2083C21.5833 27.1728 20.7439 26.3333 19.7083 26.3333Z"
        fill="#EBFCF7" />
    <path
        d="M30.9583 26.3333H27.2083C26.1728 26.3333 25.3333 27.1728 25.3333 28.2083V31.9583C25.3333 32.9939 26.1728 33.8333 27.2083 33.8333H30.9583C31.9939 33.8333 32.8333 32.9939 32.8333 31.9583V28.2083C32.8333 27.1728 31.9939 26.3333 30.9583 26.3333Z"
        fill="#EBFCF7" />
</svg>