<svg width="60" height="55" viewBox="0 0 60 55" fill="none" xmlns="http://www.w3.org/2000/svg">
    <g clip-path="url(#clip0)">
        <path
            d="M13.3988 28.967C13.6669 29.2119 14.07 29.2866 14.4206 29.1534C14.7712 29.0211 15 28.7066 15 28.3594C15 26.5942 12.6244 23.2031 9.375 23.2031C6.12562 23.2031 3.75 26.5942 3.75 28.3594C3.75 28.7066 3.97875 29.0211 4.32844 29.1534C4.44469 29.1981 4.56656 29.2188 4.6875 29.2188C4.93125 29.2188 5.17125 29.1311 5.35125 28.967C6.19313 28.1944 7.13531 27.5 9.375 27.5C11.6128 27.5 12.6253 28.2571 13.3988 28.967ZM9.375 24.9219C10.305 24.9219 11.1638 25.4375 11.8247 26.0872C11.1403 25.8973 10.3359 25.7812 9.375 25.7812C8.41406 25.7812 7.61437 25.8921 6.93469 26.0786C7.59469 25.4323 8.44969 24.9219 9.375 24.9219Z"
            fill="#EBFCF7" />
        <path
            d="M17.4534 29.1534C17.5697 29.1981 17.6916 29.2188 17.8125 29.2188C18.0562 29.2188 18.2963 29.1311 18.4763 28.967C19.3181 28.1944 20.2603 27.5 22.5 27.5C24.7378 27.5 25.7503 28.2571 26.5238 28.967C26.7919 29.2119 27.1959 29.2866 27.5456 29.1534C27.8962 29.0211 28.125 28.7066 28.125 28.3594C28.125 26.5942 25.7494 23.2031 22.5 23.2031C19.2506 23.2031 16.875 26.5942 16.875 28.3594C16.875 28.7066 17.1038 29.0211 17.4534 29.1534ZM22.5 24.9219C23.43 24.9219 24.2888 25.4375 24.9497 26.0872C24.2653 25.8973 23.4609 25.7812 22.5 25.7812C21.5391 25.7812 20.7394 25.8921 20.0597 26.0786C20.7197 25.4323 21.5747 24.9219 22.5 24.9219Z"
            fill="#EBFCF7" />
        <path
            d="M21.9216 37.0184C21.57 36.8835 21.1678 36.9592 20.8997 37.2049C19.9003 38.121 18.6928 39.0156 15.9375 39.0156C13.3134 39.0156 12.0019 38.1451 10.9753 37.2049C10.7072 36.9592 10.3041 36.8835 9.95344 37.0184C9.60375 37.1508 9.375 37.4653 9.375 37.8125C9.375 39.8716 12.1462 43.8281 15.9375 43.8281C19.7288 43.8281 22.5 39.8716 22.5 37.8125C22.5 37.4653 22.2712 37.1508 21.9216 37.0184ZM15.9375 42.1094C14.5125 42.1094 13.2469 41.1899 12.39 40.1577C13.3275 40.5084 14.4788 40.7352 15.9375 40.7352C17.3991 40.7352 18.54 40.5178 19.4728 40.1724C18.6169 41.1976 17.3559 42.1094 15.9375 42.1094Z"
            fill="#EBFCF7" />
        <path
            d="M51.5625 39.5312H41.25V37.8125C41.25 36.8646 42.0909 36.0937 43.125 36.0937H53.4375C55.5056 36.0937 57.1875 34.552 57.1875 32.6562C57.1875 30.7605 55.5056 29.2187 53.4375 29.2187H38.4375C37.4034 29.2187 36.5625 28.4479 36.5625 27.5C36.5625 26.5521 37.4034 25.7812 38.4375 25.7812H49.6875C51.7556 25.7812 53.4375 24.2395 53.4375 22.3437V20.625H51.5625V22.3437C51.5625 23.2916 50.7216 24.0625 49.6875 24.0625H38.4375C36.3694 24.0625 34.6875 25.6042 34.6875 27.5C34.6875 29.3958 36.3694 30.9375 38.4375 30.9375H53.4375C54.4716 30.9375 55.3125 31.7083 55.3125 32.6562C55.3125 33.6041 54.4716 34.375 53.4375 34.375H43.125C41.0569 34.375 39.375 35.9167 39.375 37.8125V39.5312H29.9231C31.2159 36.2484 31.875 32.8247 31.875 29.3322V14.6094C31.875 14.3189 31.7156 14.049 31.4503 13.8901C31.185 13.7311 30.8512 13.7062 30.5616 13.8222C21.2681 17.5501 10.6069 17.5501 1.31344 13.8222C1.02281 13.7044 0.689063 13.7311 0.424688 13.8901C0.159375 14.049 0 14.3189 0 14.6094V29.3322C0 39.7839 5.77219 49.3307 15.4406 54.8694C15.5925 54.9562 15.765 55 15.9375 55C16.11 55 16.2825 54.9562 16.4344 54.8694C18.3281 53.7848 20.0972 52.5052 21.7266 51.0726C23.1787 53.4144 25.92 55 29.0625 55C30.9891 55 32.8538 54.3924 34.3547 53.2812H46.2712C47.7712 54.3924 49.6359 55 51.5634 55C56.2153 55 60.0009 51.5307 60.0009 47.2656C60.0009 43.0005 56.2144 39.5312 51.5625 39.5312ZM20.9522 49.3788C19.4184 50.7908 17.7347 52.0463 15.9366 53.1205C7.12031 47.8586 1.875 39.007 1.875 29.3322V15.8967C10.8881 19.1494 20.9869 19.1494 30 15.8967V29.3322C30 32.8608 29.2913 36.3172 27.8916 39.6137C27.8784 39.6155 27.8662 39.6189 27.8531 39.6206C25.8169 39.8905 24.0159 40.8255 22.7203 42.1816C22.7175 42.185 22.7138 42.1876 22.7109 42.191C22.5628 42.3466 22.4222 42.509 22.2881 42.6757C22.2684 42.6998 22.2488 42.723 22.23 42.747C22.1081 42.9017 21.9937 43.0607 21.8841 43.2231C21.8569 43.2635 21.8297 43.3048 21.8025 43.3451C21.7041 43.4973 21.6112 43.6519 21.525 43.8109C21.4931 43.8694 21.4622 43.9287 21.4322 43.988C21.3563 44.1358 21.2841 44.2844 21.2184 44.4374C21.1847 44.5156 21.1547 44.5955 21.1237 44.6746C21.0694 44.8147 21.015 44.9556 20.9691 45.0991C20.9363 45.2005 20.9109 45.3045 20.8828 45.4076C20.8481 45.5357 20.8116 45.662 20.7844 45.7926C20.7553 45.9301 20.7356 46.0702 20.715 46.2103C20.7 46.3126 20.6794 46.4123 20.6681 46.5154C20.64 46.762 20.625 47.0121 20.625 47.2656C20.625 47.5991 20.6559 47.9256 20.7009 48.2487C20.7103 48.3115 20.7216 48.3742 20.7328 48.4369C20.7853 48.7515 20.8556 49.06 20.9484 49.3608C20.9503 49.3668 20.9503 49.3728 20.9522 49.3788ZM51.5625 53.2812C49.9716 53.2812 48.4341 52.7467 47.2331 51.7773C47.0616 51.639 46.8413 51.5625 46.6134 51.5625H34.0116C33.7837 51.5625 33.5625 51.639 33.3919 51.7773C32.1909 52.7467 30.6534 53.2812 29.0625 53.2812C26.2275 53.2812 23.8144 51.6218 22.8984 49.3101C22.77 48.9852 22.6744 48.6552 22.6078 48.3235C22.6031 48.2994 22.6003 48.2745 22.5956 48.2505C22.5347 47.9239 22.5 47.5948 22.5 47.2656C22.5 47.0645 22.5122 46.866 22.5328 46.6701C22.5441 46.5695 22.5638 46.4716 22.5806 46.3727C22.5956 46.2799 22.6069 46.1871 22.6266 46.096C22.6547 45.9671 22.6922 45.8416 22.7288 45.7153C22.7456 45.6586 22.7587 45.6001 22.7775 45.5434C22.8244 45.3999 22.8806 45.2598 22.9388 45.1215C22.9538 45.0862 22.9659 45.0501 22.9809 45.0149C23.0484 44.8637 23.1234 44.7167 23.2031 44.5715C23.2144 44.5517 23.2238 44.5311 23.235 44.5122C23.3213 44.3592 23.4159 44.2114 23.5153 44.0662C23.5228 44.0559 23.5294 44.0447 23.5359 44.0344C23.64 43.8857 23.7516 43.7422 23.8687 43.603C23.8744 43.5969 23.8791 43.5901 23.8837 43.5841C24.0037 43.4423 24.1313 43.3056 24.2653 43.1741C24.2681 43.1716 24.2709 43.1681 24.2747 43.1655C24.4106 43.0323 24.5531 42.9051 24.7013 42.784C24.7022 42.7831 24.7041 42.7814 24.705 42.7805C24.8541 42.6585 25.0106 42.5425 25.1719 42.4333C25.1728 42.4325 25.1737 42.4325 25.1737 42.4316C25.3359 42.3216 25.5037 42.2185 25.6763 42.1231C26.5434 41.6419 27.5428 41.3394 28.6144 41.2732C28.6172 41.2732 28.6191 41.2723 28.6219 41.2715C28.7681 41.2612 28.9144 41.25 29.0625 41.25H51.5625C55.1813 41.25 58.125 43.9493 58.125 47.2656C58.125 50.5819 55.1813 53.2812 51.5625 53.2812Z"
            fill="#EBFCF7" />
        <path d="M30 43.8281H28.125V46.4062H25.3125V48.125H28.125V50.7031H30V48.125H32.8125V46.4062H30V43.8281Z"
            fill="#EBFCF7" />
        <path
            d="M49.6875 47.2656C50.2053 47.2656 50.625 46.8809 50.625 46.4062C50.625 45.9316 50.2053 45.5469 49.6875 45.5469C49.1697 45.5469 48.75 45.9316 48.75 46.4062C48.75 46.8809 49.1697 47.2656 49.6875 47.2656Z"
            fill="#EBFCF7" />
        <path
            d="M53.4375 45.5469C53.9553 45.5469 54.375 45.1621 54.375 44.6875C54.375 44.2129 53.9553 43.8281 53.4375 43.8281C52.9197 43.8281 52.5 44.2129 52.5 44.6875C52.5 45.1621 52.9197 45.5469 53.4375 45.5469Z"
            fill="#EBFCF7" />
        <path
            d="M50.625 50.7031C51.1428 50.7031 51.5625 50.3184 51.5625 49.8438C51.5625 49.3691 51.1428 48.9844 50.625 48.9844C50.1072 48.9844 49.6875 49.3691 49.6875 49.8438C49.6875 50.3184 50.1072 50.7031 50.625 50.7031Z"
            fill="#EBFCF7" />
        <path
            d="M54.375 48.9844C54.8928 48.9844 55.3125 48.5996 55.3125 48.125C55.3125 47.6504 54.8928 47.2656 54.375 47.2656C53.8572 47.2656 53.4375 47.6504 53.4375 48.125C53.4375 48.5996 53.8572 48.9844 54.375 48.9844Z"
            fill="#EBFCF7" />
        <path d="M39.375 48.125H36.5625V49.8438H39.375V48.125Z" fill="#EBFCF7" />
        <path d="M44.0625 48.125H41.25V49.8438H44.0625V48.125Z" fill="#EBFCF7" />
        <path
            d="M42.1875 16.3281V6.875H40.3125V14.0972C39.7622 13.8823 39.1294 13.75 38.4375 13.75C36.3347 13.75 34.6875 14.8818 34.6875 16.3281C34.6875 17.7745 36.3347 18.9062 38.4375 18.9062C40.5403 18.9062 42.1875 17.7745 42.1875 16.3281ZM36.5625 16.3281C36.5625 15.9775 37.2928 15.4688 38.4375 15.4688C39.5822 15.4688 40.3125 15.9775 40.3125 16.3281C40.3125 16.6788 39.5822 17.1875 38.4375 17.1875C37.2928 17.1875 36.5625 16.6788 36.5625 16.3281Z"
            fill="#EBFCF7" />
        <path
            d="M58.125 7.22219C57.5747 7.00734 56.9419 6.875 56.25 6.875C54.1472 6.875 52.5 8.0068 52.5 9.45312C52.5 10.8995 54.1472 12.0312 56.25 12.0312C58.3528 12.0312 60 10.8995 60 9.45312V0H58.125V7.22219ZM56.25 10.3125C55.1053 10.3125 54.375 9.80375 54.375 9.45312C54.375 9.1025 55.1053 8.59375 56.25 8.59375C57.3947 8.59375 58.125 9.1025 58.125 9.45312C58.125 9.80375 57.3947 10.3125 56.25 10.3125Z"
            fill="#EBFCF7" />
        <path
            d="M45.1838 17.1703L48.75 16.5172V17.1875C48.75 17.4453 48.8757 17.6885 49.0932 17.8518C49.2619 17.979 49.4728 18.0469 49.6875 18.0469C49.7485 18.0469 49.8103 18.0409 49.8713 18.0297L54.5588 17.1703L54.1903 15.4851L50.625 16.1391V15.4688C50.625 15.211 50.4994 14.9677 50.2819 14.8045C50.0653 14.642 49.7785 14.5759 49.5038 14.6266L44.8163 15.486L45.1838 17.1703Z"
            fill="#EBFCF7" />
        <path
            d="M50.2819 2.77318C50.0653 2.61076 49.7785 2.54544 49.5038 2.59529L44.8163 3.45466L45.1847 5.1399L48.75 4.48591V5.15622C48.75 5.41404 48.8757 5.65724 49.0932 5.82052C49.2619 5.94771 49.4728 6.0156 49.6875 6.0156C49.7485 6.0156 49.8103 6.00958 49.8713 5.99841L54.5588 5.13904L54.1913 3.45466L50.625 4.10779V3.43747C50.625 3.17966 50.4994 2.93646 50.2819 2.77318Z"
            fill="#EBFCF7" />
        <path d="M47.8125 9.45312H45.9375V11.1719H47.8125V9.45312Z" fill="#EBFCF7" />
        <path d="M59.0625 13.75H57.1875V15.4688H59.0625V13.75Z" fill="#EBFCF7" />
        <path
            d="M12.1875 4.29688C8.05219 4.29688 4.6875 7.38117 4.6875 11.1719H6.5625C6.5625 8.3282 9.08531 6.01562 12.1875 6.01562V4.29688Z"
            fill="#EBFCF7" />
        <path d="M12.1875 0C5.4675 0 0 5.01187 0 11.1719H1.875C1.875 5.95977 6.50156 1.71875 12.1875 1.71875V0Z"
            fill="#EBFCF7" />
        <path
            d="M11.25 11.1719C11.25 10.6975 11.6709 10.3125 12.1875 10.3125V8.59375C10.6369 8.59375 9.375 9.75047 9.375 11.1719H11.25Z"
            fill="#EBFCF7" />
        <path
            d="M19.6875 6.01562C22.7897 6.01562 25.3125 8.3282 25.3125 11.1719H27.1875C27.1875 7.38117 23.8228 4.29688 19.6875 4.29688V6.01562Z"
            fill="#EBFCF7" />
        <path d="M30 11.1719H31.875C31.875 5.01187 26.4075 0 19.6875 0V1.71875C25.3734 1.71875 30 5.95977 30 11.1719Z"
            fill="#EBFCF7" />
        <path
            d="M19.6875 10.3125C20.2041 10.3125 20.625 10.6975 20.625 11.1719H22.5C22.5 9.75047 21.2381 8.59375 19.6875 8.59375V10.3125Z"
            fill="#EBFCF7" />
        <path d="M16.875 1.71875H15V3.4375H16.875V1.71875Z" fill="#EBFCF7" />
        <path d="M16.875 5.15625H15V6.875H16.875V5.15625Z" fill="#EBFCF7" />
        <path d="M16.875 8.59375H15V10.3125H16.875V8.59375Z" fill="#EBFCF7" />
        <path d="M16.875 12.0312H15V13.75H16.875V12.0312Z" fill="#EBFCF7" />
    </g>
    <defs>
        <clipPath id="clip0">
            <rect width="60" height="55" fill="white" />
        </clipPath>
    </defs>
</svg>