<svg width="49" height="50" viewBox="0 0 49 50" fill="none" xmlns="http://www.w3.org/2000/svg">
    <path
        d="M24.5 17.5C23.7583 17.5 23.0333 17.2801 22.4166 16.868C21.7999 16.456 21.3193 15.8703 21.0355 15.1851C20.7516 14.4998 20.6774 13.7458 20.8221 13.0184C20.9668 12.291 21.3239 11.6228 21.8484 11.0984C22.3728 10.5739 23.041 10.2168 23.7684 10.0721C24.4958 9.92736 25.2498 10.0016 25.9351 10.2855C26.6203 10.5693 27.206 11.0499 27.618 11.6666C28.0301 12.2833 28.25 13.0083 28.25 13.75C28.25 14.7446 27.8549 15.6984 27.1517 16.4017C26.4484 17.1049 25.4946 17.5 24.5 17.5Z"
        fill="#5C9A88" />
    <path
        d="M24.5 49.375C19.6791 49.375 14.9664 47.9454 10.958 45.2671C6.94954 42.5887 3.82533 38.7819 1.98045 34.3279C0.135561 29.874 -0.347145 24.973 0.59337 20.2447C1.53388 15.5164 3.85538 11.1732 7.26428 7.76428C10.6732 4.35538 15.0164 2.03388 19.7447 1.09337C24.473 0.152855 29.374 0.635561 33.8279 2.48045C38.2819 4.32533 42.0887 7.44954 44.7671 11.458C47.4454 15.4664 48.875 20.1791 48.875 25C48.875 31.4647 46.3069 37.6645 41.7357 42.2357C37.1645 46.8069 30.9647 49.375 24.5 49.375ZM24.5 4.37501C20.4208 4.37501 16.4331 5.58465 13.0414 7.85095C9.64961 10.1173 7.00605 13.3384 5.445 17.1072C3.88394 20.8759 3.47549 25.0229 4.27131 29.0238C5.06713 33.0246 7.03148 36.6996 9.91593 39.5841C12.8004 42.4685 16.4754 44.4329 20.4763 45.2287C24.4771 46.0245 28.6241 45.6161 32.3929 44.055C36.1616 42.494 39.3828 39.8504 41.6491 36.4586C43.9154 33.0669 45.125 29.0793 45.125 25C45.125 19.5299 42.952 14.2839 39.0841 10.4159C35.2162 6.548 29.9701 4.37501 24.5 4.37501Z"
        fill="#5C9A88" />
    <path
        d="M24.5 40C23.5054 40 22.5516 39.6049 21.8484 38.9017C21.1451 38.1984 20.75 37.2446 20.75 36.25V25C20.75 24.0054 21.1451 23.0516 21.8484 22.3484C22.5516 21.6451 23.5054 21.25 24.5 21.25C25.4946 21.25 26.4484 21.6451 27.1517 22.3484C27.8549 23.0516 28.25 24.0054 28.25 25V36.25C28.25 37.2446 27.8549 38.1984 27.1517 38.9017C26.4484 39.6049 25.4946 40 24.5 40Z"
        fill="#5C9A88" />
</svg>