<svg width="60" height="60" viewBox="0 0 60 60" fill="none" xmlns="http://www.w3.org/2000/svg">
    <path
        d="M27.5775 29.66C26.7225 27.4756 26.25 24.9822 26.25 22.2222C26.25 19.4622 26.7225 16.6911 27.5775 14.0911C28.4306 11.4889 29.6662 9.05556 31.1944 6.96889C32.7206 4.88444 34.5394 3.14 36.5569 1.92222C38.5762 0.697778 40.7963 0 43.125 0C45.4537 0 47.6738 0.56 49.6931 1.57111C51.7125 2.58444 53.5294 4.04889 55.0556 5.85778C56.58 7.66667 57.8194 9.82222 58.6725 12.2156C59.5294 14.6067 60 17.24 60 20C60 22.76 59.5275 25.3933 58.6725 27.7844C57.8194 30.1778 56.5838 32.3333 55.0556 34.1422C53.5313 35.9511 32.0194 58.9867 30 60C27.9806 58.9867 6.46875 35.9511 4.9425 34.1422C3.41625 32.3333 2.18063 30.1778 1.32563 27.7844C0.4725 25.3933 0 22.76 0 20C0 17.24 0.4725 14.6067 1.32563 12.2156C2.18063 9.82222 3.41437 7.66667 4.9425 5.85778C6.46875 4.04889 8.2875 2.58444 10.3069 1.57111C12.3244 0.56 14.5444 0 16.875 0C19.2056 0 21.4256 0.697778 23.4431 1.91778C25.4625 3.14 27.2794 4.88222 28.8075 6.96667C30.3338 9.05333 31.5694 11.4867 32.4244 14.0889C33.2775 16.6911 33.75 19.4622 33.75 22.2222C33.75 24.9822 33.2775 27.4756 32.4244 29.66C31.5694 31.8444 30.3375 33.7222 28.8075 35.2556"
        fill="#EBFCF7" />
</svg>