<svg width="24" height="30" viewBox="0 0 24 30" fill="none" xmlns="http://www.w3.org/2000/svg">
    <path
        d="M10.5 1.5V24.879L2.5605 16.9395C1.97475 16.3538 1.02525 16.3538 0.439496 16.9395C-0.146254 17.5253 -0.146254 18.4751 0.439496 19.0609L10.9395 29.5609C11.5252 30.1466 12.4751 30.1466 13.0605 29.5609L23.5605 19.0609C23.8534 18.768 24 18.384 24 18C24 17.6164 23.8534 17.2324 23.5605 16.9395C22.9748 16.3538 22.0249 16.3538 21.4395 16.9395L13.5 24.879V1.5C13.5 0.672 12.8284 0 12 0C11.1716 0 10.5 0.671625 10.5 1.5Z"
        fill="#EBFCF7" />
</svg>