<svg width="17" height="16" viewBox="0 0 17 16" fill="none" xmlns="http://www.w3.org/2000/svg">
    <path
        d="M16.0014 6.21927C16.0014 2.78477 13.217 -1.52588e-05 9.78282 -1.52588e-05C6.34869 -1.52588e-05 3.56422 2.78477 3.56422 6.21929C3.56422 7.54 3.97611 8.76481 4.67772 9.77162L4.67845 9.77235L0.066433 14.3849C-0.0191498 14.4705 -0.021347 14.6066 0.066433 14.6944L1.30943 15.9375C1.39501 16.0231 1.53693 16.0187 1.61888 15.9368L6.23017 11.3249C7.23759 12.0266 8.46229 12.4386 9.78282 12.4386C13.217 12.4386 16.0014 9.65379 16.0014 6.21927ZM5.02742 6.21927C5.02742 3.59252 7.15637 1.46333 9.78282 1.46333C12.4093 1.46333 14.5382 3.59254 14.5382 6.21927C14.5382 8.84599 12.4093 10.9752 9.78282 10.9752C7.15637 10.9752 5.02742 8.84601 5.02742 6.21927Z"
        fill="#5C9A88" />
</svg>