<svg width="30" height="30" viewBox="0 0 30 30" fill="none" xmlns="http://www.w3.org/2000/svg">
    <path
        d="M10 10C12.15 10 14.1667 10.6833 15.7833 11.85L24.3 3.33333H16.6667V0H30V13.3333H26.6667V5.68333L18.15 14.1667C19.3167 15.8333 20 17.8333 20 20C20 22.6522 18.9464 25.1957 17.0711 27.0711C15.1957 28.9464 12.6522 30 10 30C7.34784 30 4.8043 28.9464 2.92893 27.0711C1.05357 25.1957 0 22.6522 0 20C0 17.3478 1.05357 14.8043 2.92893 12.9289C4.8043 11.0536 7.34784 10 10 10ZM10 13.3333C8.23189 13.3333 6.5362 14.0357 5.28595 15.286C4.03571 16.5362 3.33333 18.2319 3.33333 20C3.33333 21.7681 4.03571 23.4638 5.28595 24.714C6.5362 25.9643 8.23189 26.6667 10 26.6667C11.7681 26.6667 13.4638 25.9643 14.714 24.714C15.9643 23.4638 16.6667 21.7681 16.6667 20C16.6667 18.2319 15.9643 16.5362 14.714 15.286C13.4638 14.0357 11.7681 13.3333 10 13.3333Z"
        fill="#5C9A88" />
</svg>