<svg width="18" height="18" viewBox="0 0 18 18" fill="none" xmlns="http://www.w3.org/2000/svg">
    <path
        d="M12.6433 5.35664C12.4352 4.23754 11.9253 3.19654 11.1688 2.34601C10.4123 1.49548 9.43784 0.867728 8.35065 0.530517C7.26345 0.193305 6.1048 0.159442 4.99976 0.432582C3.89473 0.705722 2.88528 1.27549 2.08039 2.08039C1.27549 2.88528 0.705722 3.89473 0.432582 4.99976C0.159442 6.1048 0.193305 7.26345 0.530517 8.35065C0.867728 9.43784 1.49548 10.4123 2.34601 11.1688C3.19654 11.9253 4.23754 12.4352 5.35664 12.6433C5.56478 13.7624 6.07462 14.8034 6.83113 15.6539C7.58764 16.5045 8.56209 17.1322 9.64929 17.4694C10.7365 17.8066 11.8951 17.8405 13.0002 17.5674C14.1052 17.2942 15.1147 16.7244 15.9195 15.9195C16.7244 15.1147 17.2942 14.1052 17.5674 13.0002C17.8405 11.8951 17.8066 10.7365 17.4694 9.64929C17.1322 8.56209 16.5045 7.58764 15.6539 6.83113C14.8034 6.07462 13.7624 5.56478 12.6433 5.35664ZM1.5 6.49998C1.50007 5.28263 1.94423 4.10712 2.74919 3.1939C3.55414 2.28067 4.6646 1.69247 5.87231 1.53958C7.08001 1.3867 8.30201 1.67964 9.30914 2.36348C10.3163 3.04731 11.0393 4.07506 11.3428 5.25399C9.74117 5.29603 8.21677 5.95101 7.08389 7.08389C5.951 8.21677 5.29601 9.74117 5.25397 11.3428C4.18045 11.0649 3.22947 10.4387 2.55011 9.56233C1.87075 8.68592 1.50141 7.60886 1.5 6.49998ZM11.5 16.4999C10.3911 16.4985 9.314 16.1292 8.4376 15.4498C7.56119 14.7705 6.935 13.8195 6.65718 12.7459C8.25877 12.7039 9.78316 12.0489 10.916 10.916C12.0489 9.78316 12.7039 8.25876 12.746 6.65718C13.9249 6.9606 14.9526 7.68367 15.6365 8.6908C16.3203 9.69793 16.6132 10.9199 16.4603 12.1276C16.3075 13.3353 15.7193 14.4458 14.806 15.2507C13.8928 16.0557 12.7173 16.4999 11.5 16.4999Z"
        fill="#5C9A88" />
</svg>