<svg width="35" height="35" viewBox="0 0 35 35" fill="none" xmlns="http://www.w3.org/2000/svg">
    <path
        d="M30.8936 3.64615e-06H4.10092C3.01329 3.64615e-06 1.9702 0.43213 1.20113 1.20132C0.43206 1.97051 0 3.01375 0 4.10155L0 21.7573C0 22.8451 0.43206 23.8884 1.20113 24.6576C1.9702 25.4268 3.01329 25.8589 4.10092 25.8589H10.4656C10.5381 25.8589 10.6076 25.8877 10.6589 25.939C10.7101 25.9903 10.7389 26.0598 10.7389 26.1323V33.0858C10.7389 33.4644 10.8511 33.8345 11.0614 34.1493C11.2717 34.4641 11.5706 34.7094 11.9203 34.8543C12.27 34.9992 12.6549 35.0371 13.0261 34.9632C13.3974 34.8894 13.7384 34.707 14.006 34.4393L22.5031 25.9409C22.5287 25.9156 22.559 25.8955 22.5923 25.8819C22.6256 25.8683 22.6613 25.8614 22.6972 25.8616H30.8991C31.9867 25.8616 33.0298 25.4295 33.7989 24.6603C34.5679 23.8911 35 22.8479 35 21.7601V4.10155C35 3.56247 34.8937 3.02867 34.6873 2.53069C34.4809 2.03271 34.1783 1.58032 33.7969 1.19938C33.4155 0.818448 32.9628 0.516444 32.4646 0.310644C31.9665 0.104844 31.4326 -0.000715131 30.8936 3.64615e-06ZM33.3542 21.7573C33.3542 22.41 33.0949 23.036 32.6335 23.4975C32.172 23.959 31.5462 24.2183 30.8936 24.2183H22.6918C22.1861 24.2146 21.6996 24.4112 21.3385 24.7651L12.8496 33.2772C12.8113 33.3158 12.7625 33.3421 12.7092 33.3528C12.656 33.3634 12.6008 33.358 12.5506 33.3372C12.5004 33.3164 12.4576 33.2811 12.4276 33.2358C12.3976 33.1906 12.3817 33.1374 12.382 33.0831V26.1323C12.382 25.6247 12.1804 25.1378 11.8215 24.7789C11.4626 24.4199 10.9758 24.2183 10.4683 24.2183H4.10092C3.44834 24.2183 2.82249 23.959 2.36105 23.4975C1.8996 23.036 1.64037 22.41 1.64037 21.7573V4.10155C1.64037 3.44887 1.8996 2.82292 2.36105 2.36141C2.82249 1.8999 3.44834 1.64062 4.10092 1.64062H30.8936C31.5462 1.64062 32.172 1.8999 32.6335 2.36141C33.0949 2.82292 33.3542 3.44887 33.3542 4.10155V21.7573Z"
        fill="#5C9A88" />
</svg>