<svg width="42" height="42" viewBox="0 0 42 42" fill="none" xmlns="http://www.w3.org/2000/svg">
    <path
        d="M21 42C32.598 42 42 32.598 42 21C42 9.40202 32.598 0 21 0C9.40202 0 0 9.40202 0 21C0 32.598 9.40202 42 21 42Z"
        fill="#5C9A88" />
    <path
        d="M17.8172 31.8937L8.1375 22.2141C8.00625 22.0828 8.00625 21.8859 8.1375 21.7547L10.9266 18.9656C11.0578 18.8344 11.2547 18.8344 11.3859 18.9656L18.0469 25.6266L30.5813 13.0922C30.7125 12.9609 30.9094 12.9609 31.0406 13.0922L33.8297 15.8813C33.9609 16.0125 33.9609 16.2094 33.8297 16.3406L18.2766 31.8937C18.1453 32.025 17.9484 32.025 17.8172 31.8937Z"
        fill="white" />
</svg>